<svg id="mastercard_logo" data-name="mastercard logo" xmlns="http://www.w3.org/2000/svg" width="111.736" height="21.076" viewBox="0 0 111.736 21.076">
  <path id="Path_11939" data-name="Path 11939" d="M23.2,177.569v-4.018a2.357,2.357,0,0,0-2.545-2.545,2.642,2.642,0,0,0-2.277,1.139,2.343,2.343,0,0,0-2.143-1.139,2.163,2.163,0,0,0-1.875.937v-.8H12.952v6.429h1.406v-3.549c0-1.138.6-1.674,1.54-1.674s1.406.6,1.406,1.674v3.549h1.406v-3.549a1.482,1.482,0,0,1,1.54-1.674c.938,0,1.406.6,1.406,1.674v3.549Zm20.827-6.429H41.749V169.2H40.342v1.942H39.07v1.272h1.273v2.947c0,1.473.6,2.344,2.21,2.344a3.747,3.747,0,0,0,1.741-.469l-.4-1.206a2.2,2.2,0,0,1-1.205.335c-.67,0-.937-.4-.937-1.072v-2.879h2.277V171.14Zm11.921-.134a1.888,1.888,0,0,0-1.674.937v-.8H52.865v6.429h1.406v-3.616c0-1.071.469-1.674,1.339-1.674a3.911,3.911,0,0,1,.871.134l.4-1.34a4.429,4.429,0,0,0-.937-.067Zm-18.015.67a4.6,4.6,0,0,0-2.612-.67c-1.607,0-2.679.8-2.679,2.076,0,1.072.8,1.674,2.21,1.875l.67.067c.737.134,1.138.335,1.138.67,0,.469-.536.8-1.473.8a3.7,3.7,0,0,1-2.143-.67l-.67,1.071a4.736,4.736,0,0,0,2.746.8c1.875,0,2.947-.87,2.947-2.076,0-1.138-.871-1.741-2.21-1.942l-.67-.067c-.6-.067-1.071-.2-1.071-.6,0-.469.469-.737,1.205-.737a4.826,4.826,0,0,1,2.009.536l.6-1.138Zm37.369-.67a1.888,1.888,0,0,0-1.674.937v-.8H72.219v6.429h1.406v-3.616c0-1.071.469-1.674,1.34-1.674a3.911,3.911,0,0,1,.871.134l.4-1.34a4.429,4.429,0,0,0-.937-.067Zm-17.948,3.348a3.217,3.217,0,0,0,3.415,3.348,3.332,3.332,0,0,0,2.277-.736l-.67-1.138a2.706,2.706,0,0,1-1.674.6,1.9,1.9,0,0,1-1.942-2.076,1.975,1.975,0,0,1,1.942-2.076,2.7,2.7,0,0,1,1.674.6l.67-1.139a3.33,3.33,0,0,0-2.277-.737,3.217,3.217,0,0,0-3.415,3.348Zm12.992,0V171.14H68.938v.8a2.42,2.42,0,0,0-2.009-.937,3.351,3.351,0,0,0,0,6.7,2.254,2.254,0,0,0,2.009-.937v.8h1.406Zm-5.157,0a1.946,1.946,0,1,1,3.884,0,1.946,1.946,0,1,1-3.884,0Zm-16.809-3.348a3.35,3.35,0,0,0,.067,6.7,4.1,4.1,0,0,0,2.612-.87l-.67-1a3.2,3.2,0,0,1-1.875.67,1.808,1.808,0,0,1-1.942-1.54h4.755v-.536c.067-2.076-1.138-3.415-2.947-3.415Zm0,1.205a1.566,1.566,0,0,1,1.607,1.54H46.637a1.7,1.7,0,0,1,1.741-1.54Zm34.89,2.143V168.6H81.863v3.348a2.42,2.42,0,0,0-2.009-.937,3.351,3.351,0,0,0,0,6.7,2.254,2.254,0,0,0,2.009-.937v.8h1.406Zm-5.156,0a1.946,1.946,0,1,1,3.884,0,1.946,1.946,0,1,1-3.884,0Zm-47.012,0V171.14H29.694v.8a2.42,2.42,0,0,0-2.009-.937,3.351,3.351,0,0,0,0,6.7,2.254,2.254,0,0,0,2.009-.937v.8H31.1Zm-5.224,0a1.946,1.946,0,1,1,3.884,0,1.946,1.946,0,1,1-3.884,0Z" transform="translate(28.467 -162.696)"/>
  <rect id="Rectangle_5084" data-name="Rectangle 5084" width="9.221" height="16.568" transform="translate(12.44 2.254)" fill="#ff5f00"/>
  <path id="Path_11940" data-name="Path 11940" d="M13.026,10.538a10.566,10.566,0,0,1,4.01-8.284,10.534,10.534,0,1,0-6.5,18.822,10.472,10.472,0,0,0,6.5-2.254A10.522,10.522,0,0,1,13.026,10.538Z" transform="translate(0 0)" fill="#eb001b"/>
  <path id="Path_11941" data-name="Path 11941" d="M145.019,10.538a10.527,10.527,0,0,1-17.036,8.284,10.561,10.561,0,0,0,0-16.568,10.527,10.527,0,0,1,17.036,8.284Z" transform="translate(-110.918 0)" fill="#f79e1b"/>
</svg>
