<svg id="Icon_PLUS" data-name="Icon PLUS" xmlns="http://www.w3.org/2000/svg" width="35" height="35" viewBox="0 0 35 35">
  <path id="Path_11924" data-name="Path 11924" d="M21.8,15.7H17.529V11.428a.917.917,0,0,0-1.833,0V15.7H11.428a.878.878,0,0,0-.917.917.887.887,0,0,0,.917.917H15.7V21.8a.888.888,0,0,0,.917.917.912.912,0,0,0,.917-.917V17.529H21.8a.917.917,0,0,0,0-1.833Z" transform="translate(0.888 0.888)" fill="#fb9d22"/>
  <path id="Path_11925" data-name="Path 11925" d="M20.875,5.731a15.138,15.138,0,1,1-10.71,4.434,15.044,15.044,0,0,1,10.71-4.434m0-2.356a17.5,17.5,0,1,0,17.5,17.5,17.5,17.5,0,0,0-17.5-17.5Z" transform="translate(-3.375 -3.375)" fill="#fb9d22"/>
</svg>
