<svg id="paypal_logo" data-name="paypal logo" xmlns="http://www.w3.org/2000/svg" width="86.964" height="21.075" viewBox="0 0 86.964 21.075">
  <path id="Path_11942" data-name="Path 11942" d="M57.535,59.9h5.936c3.19,0,4.387,1.611,4.2,3.988-.307,3.911-2.669,6.089-5.813,6.089h-1.58c-.429,0-.721.291-.844,1.058l-.66,4.494a.513.513,0,0,1-.429.491H54.621c-.353,0-.475-.261-.383-.844l2.27-14.4A.913.913,0,0,1,57.535,59.9Z" transform="translate(-49.954 -54.946)" fill="#009ee3" fill-rule="evenodd"/>
  <path id="Path_11943" data-name="Path 11943" d="M200.8,58.115c2.009,0,3.85,1.089,3.6,3.8-.307,3.221-2.04,5-4.755,5.016h-2.377c-.337,0-.506.276-.6.859l-.46,2.93c-.077.445-.291.66-.629.66h-2.209c-.353,0-.475-.23-.4-.736L194.8,58.9c.092-.583.307-.8.706-.8H200.8Zm-3.6,6.274h1.81c1.12-.046,1.871-.828,1.948-2.224a1.358,1.358,0,0,0-1.473-1.488l-1.7.015-.583,3.7Zm13.222,6.074c.2-.184.414-.276.383-.046l-.077.537c-.031.276.077.429.337.429h1.963c.337,0,.491-.138.568-.644l1.212-7.608c.061-.383-.031-.568-.322-.568h-2.163c-.2,0-.291.107-.337.414l-.077.475c-.046.245-.153.291-.261.046-.368-.874-1.3-1.258-2.608-1.227a5.4,5.4,0,0,0-5.292,5.323,3.66,3.66,0,0,0,3.62,4.08,4.054,4.054,0,0,0,3.052-1.212Zm-1.641-1.181a1.978,1.978,0,0,1-2.025-2.316,2.822,2.822,0,0,1,2.715-2.316,1.978,1.978,0,0,1,2.025,2.316,2.807,2.807,0,0,1-2.715,2.316Zm9.893-6.749h-1.994c-.414,0-.583.307-.445.69l2.47,7.255-2.423,3.436c-.2.291-.046.552.245.552h2.239a.691.691,0,0,0,.66-.322l7.608-10.921c.23-.337.123-.69-.261-.69h-2.117c-.368,0-.506.138-.721.445l-3.175,4.6-1.411-4.617C219.27,62.686,219.055,62.533,218.671,62.533Z" transform="translate(-167.421 -53.422)" fill="#113984" fill-rule="evenodd"/>
  <path id="Path_11944" data-name="Path 11944" d="M423.5,58.2c2.009,0,3.85,1.089,3.6,3.8-.307,3.221-2.04,5-4.755,5.016h-2.378c-.337,0-.506.276-.6.859l-.46,2.93c-.077.445-.291.66-.629.66h-2.209c-.353,0-.475-.23-.4-.736L417.5,59.013c.092-.583.307-.8.706-.8H423.5Zm-3.6,6.274h1.81c1.12-.046,1.871-.828,1.948-2.224a1.358,1.358,0,0,0-1.473-1.488l-1.7.015-.583,3.7Zm13.222,6.074c.2-.184.414-.276.383-.046l-.077.537c-.031.276.077.429.337.429h1.963c.337,0,.491-.138.568-.644l1.212-7.608c.061-.383-.031-.568-.322-.568h-2.147c-.2,0-.291.107-.337.414l-.077.475c-.046.245-.153.291-.261.046-.368-.874-1.3-1.258-2.608-1.227a5.4,5.4,0,0,0-5.292,5.323,3.66,3.66,0,0,0,3.62,4.08,4.043,4.043,0,0,0,3.037-1.212Zm-1.641-1.181a1.978,1.978,0,0,1-2.025-2.316,2.822,2.822,0,0,1,2.715-2.316,1.978,1.978,0,0,1,2.025,2.316,2.82,2.82,0,0,1-2.715,2.316Zm9.065,2.117h-2.27a.259.259,0,0,1-.276-.307l1.994-12.639a.4.4,0,0,1,.383-.307h2.27a.259.259,0,0,1,.276.307l-1.994,12.639A.4.4,0,0,1,440.543,71.483Z" transform="translate(-355.961 -53.506)" fill="#009ee3" fill-rule="evenodd"/>
  <path id="Path_11945" data-name="Path 11945" d="M30.342,27.6h5.951c1.672,0,3.666.061,4.985,1.227A4.016,4.016,0,0,1,42.521,32.2c-.368,4.54-3.083,7.086-6.718,7.086h-2.93c-.506,0-.828.337-.966,1.227l-.813,5.215c-.046.337-.2.537-.46.568H26.952c-.414,0-.552-.307-.445-.982l2.638-16.734A1.056,1.056,0,0,1,30.342,27.6Z" transform="translate(-26.472 -27.6)" fill="#113984" fill-rule="evenodd"/>
  <path id="Path_11946" data-name="Path 11946" d="M62.4,67.239l1.043-6.58a.911.911,0,0,1,1.028-.859h5.936a5.99,5.99,0,0,1,2.408.429c-.6,4.049-3.206,6.289-6.642,6.289H63.259A.905.905,0,0,0,62.4,67.239Z" transform="translate(-56.889 -54.861)" fill="#172c70" fill-rule="evenodd"/>
</svg>
