<svg id="Visa_logo" data-name="Visa logo" xmlns="http://www.w3.org/2000/svg" width="68.711" height="21.076" viewBox="0 0 68.711 21.076">
  <g id="Group_3578" data-name="Group 3578" transform="translate(0 0)">
    <path id="Path_11934" data-name="Path 11934" d="M79.5,37.615,83,17.2H88.56l-3.5,20.415Z" transform="translate(-55.274 -16.85)" fill="#0058a0"/>
    <path id="Path_11935" data-name="Path 11935" d="M119.521,17.155a14.011,14.011,0,0,0-4.977-.855c-5.483,0-9.371,2.761-9.41,6.727-.039,2.916,2.761,4.589,4.861,5.561,2.178,1.011,2.916,1.633,2.878,2.528,0,1.361-1.75,1.983-3.344,1.983a11.546,11.546,0,0,1-5.25-1.089l-.7-.311-.778,4.589a17.474,17.474,0,0,0,6.183,1.089c5.872,0,9.644-2.722,9.683-6.961.039-2.333-1.478-4.083-4.666-5.561-1.944-.933-3.15-1.594-3.111-2.528,0-.855,1.011-1.75,3.189-1.75a9.771,9.771,0,0,1,4.161.778l.506.233.778-4.433Z" transform="translate(-69.514 -16.3)" fill="#0058a0"/>
    <path id="Path_11936" data-name="Path 11936" d="M158.115,17.2H153.8a2.752,2.752,0,0,0-2.916,1.711l-8.283,18.7h5.833s.972-2.528,1.167-3.072h7.116c.156.7.661,3.072.661,3.072h5.172L158.115,17.2Zm-6.883,13.182c.467-1.167,2.216-5.716,2.216-5.716-.039.039.467-1.167.739-1.944l.389,1.75s1.05,4.861,1.283,5.911Z" transform="translate(-93.837 -16.85)" fill="#0058a0"/>
    <path id="Path_11937" data-name="Path 11937" d="M45.927,17.2,40.483,31.121,39.9,28.282a15.785,15.785,0,0,0-7.7-8.555l4.977,17.849h5.872L51.8,17.2Z" transform="translate(-26.367 -16.85)" fill="#0058a0"/>
    <path id="Path_11938" data-name="Path 11938" d="M26.26,17.2H17.278l-.078.428c7,1.672,11.588,5.794,13.532,10.694L28.788,18.95A2.332,2.332,0,0,0,26.26,17.2Z" transform="translate(-17.2 -16.85)" fill="#faa61a"/>
  </g>
</svg>
