<svg id="Icon_arrow_left" data-name="Icon arrow left" xmlns="http://www.w3.org/2000/svg" width="24" height="24" viewBox="0 0 24 24">
  <path id="Icon_awesome-arrow-alt-circle-right" data-name="Icon awesome-arrow-alt-circle-right" d="M12.563.563a12,12,0,1,0,12,12A12,12,0,0,0,12.563.563Zm5.613,14.129H12.563v3.431a.581.581,0,0,1-.992.411L6.04,12.974a.575.575,0,0,1,0-.818l5.531-5.565A.581.581,0,0,1,12.563,7v3.431h5.613a.582.582,0,0,1,.581.581v3.1A.582.582,0,0,1,18.175,14.692Z" transform="translate(-0.563 -0.563)" fill="#fb9d22"/>
</svg>
