<svg xmlns="http://www.w3.org/2000/svg" width="104" height="41" viewBox="0 0 104 41">
  <g id="Community_Calendar_gray" transform="translate(1.5)">
    <path id="Icon_awesome-calendar-alt" data-name="Icon awesome-calendar-alt" d="M0,21.75A2.251,2.251,0,0,0,2.25,24h16.5A2.251,2.251,0,0,0,21,21.75V9H0Zm15-9.187A.564.564,0,0,1,15.563,12h1.875a.564.564,0,0,1,.563.563v1.875a.564.564,0,0,1-.562.563H15.563A.564.564,0,0,1,15,14.438Zm0,6A.564.564,0,0,1,15.563,18h1.875a.564.564,0,0,1,.563.563v1.875a.564.564,0,0,1-.562.563H15.563A.564.564,0,0,1,15,20.438Zm-6-6A.564.564,0,0,1,9.563,12h1.875a.564.564,0,0,1,.563.563v1.875a.564.564,0,0,1-.562.563H9.563A.564.564,0,0,1,9,14.438Zm0,6A.564.564,0,0,1,9.563,18h1.875a.564.564,0,0,1,.563.563v1.875a.564.564,0,0,1-.562.563H9.563A.564.564,0,0,1,9,20.438Zm-6-6A.564.564,0,0,1,3.563,12H5.438A.564.564,0,0,1,6,12.563v1.875A.564.564,0,0,1,5.438,15H3.563A.564.564,0,0,1,3,14.438Zm0,6A.564.564,0,0,1,3.563,18H5.438A.564.564,0,0,1,6,18.563v1.875A.564.564,0,0,1,5.438,21H3.563A.564.564,0,0,1,3,20.438ZM18.75,3H16.5V.75A.752.752,0,0,0,15.75,0h-1.5a.752.752,0,0,0-.75.75V3h-6V.75A.752.752,0,0,0,6.75,0H5.25A.752.752,0,0,0,4.5.75V3H2.25A2.251,2.251,0,0,0,0,5.25V7.5H21V5.25A2.251,2.251,0,0,0,18.75,3Z" transform="translate(0.5)" fill="#676768"/>
    <text id="Calendar" transform="translate(31.5 24)" fill="#676768" font-size="18" font-family="Barlow-Regular, Barlow"><tspan x="0" y="0">Calendar</tspan></text>
    <line id="Line_1933" data-name="Line 1933" x2="101" transform="translate(0 39.5)" fill="none" stroke="#fb9d22" stroke-linecap="round" stroke-width="3" opacity="0"/>
  </g>
</svg>
