<svg xmlns="http://www.w3.org/2000/svg" width="27.429" height="24" viewBox="0 0 27.429 24">
  <path id="Community_List_orange" d="M8,12.107v4.286a1.286,1.286,0,0,1-1.286,1.286H1.286A1.286,1.286,0,0,1,0,16.393V12.107a1.286,1.286,0,0,1,1.286-1.286H6.714A1.286,1.286,0,0,1,8,12.107ZM0,20.679v4.286A1.286,1.286,0,0,0,1.286,26.25H6.714A1.286,1.286,0,0,0,8,24.964V20.679a1.286,1.286,0,0,0-1.286-1.286H1.286A1.286,1.286,0,0,0,0,20.679ZM6.714,2.25H1.286A1.286,1.286,0,0,0,0,3.536V7.821A1.286,1.286,0,0,0,1.286,9.107H6.714A1.286,1.286,0,0,0,8,7.821V3.536A1.286,1.286,0,0,0,6.714,2.25ZM11,26.25H26.143a1.286,1.286,0,0,0,1.286-1.286V20.679a1.286,1.286,0,0,0-1.286-1.286H11a1.286,1.286,0,0,0-1.286,1.286v4.286A1.286,1.286,0,0,0,11,26.25ZM9.714,3.536V7.821A1.286,1.286,0,0,0,11,9.107H26.143a1.286,1.286,0,0,0,1.286-1.286V3.536A1.286,1.286,0,0,0,26.143,2.25H11A1.286,1.286,0,0,0,9.714,3.536ZM11,17.679H26.143a1.286,1.286,0,0,0,1.286-1.286V12.107a1.286,1.286,0,0,0-1.286-1.286H11a1.286,1.286,0,0,0-1.286,1.286v4.286A1.286,1.286,0,0,0,11,17.679Z" transform="translate(0 -2.25)" fill="#fb9d22"/>
</svg>
