<svg id="Icon_Support" xmlns="http://www.w3.org/2000/svg" width="50" height="50" viewBox="0 0 50 50">
  <circle id="Ellipse_11" data-name="Ellipse 11" cx="25" cy="25" r="25" fill="#fb9d22"/>
  <g id="Online_1_" transform="translate(-83.078 7)">
    <path id="Path_12401" data-name="Path 12401" d="M121.78,6.54A17.7,17.7,0,0,0,108.087,0h-.02A17.7,17.7,0,0,0,94.374,6.539c-3.837,4.727-5.164,11.188-3.736,18.193l.265,1.3h6a13,13,0,0,1,0-13.018h-2.5A15.328,15.328,0,0,1,96.9,8.59a14.373,14.373,0,0,1,22.353,0,15.327,15.327,0,0,1,2.494,4.426h-2.3a13,13,0,0,1,0,13.018h5.8l.265-1.3c1.428-7.005.1-13.466-3.735-18.193Z" fill="#fff"/>
    <g id="Group_65183" data-name="Group 65183" transform="translate(98.414 9.763)">
      <circle id="Ellipse_2067" data-name="Ellipse 2067" cx="9.763" cy="9.763" r="9.763" transform="translate(0)" fill="#fff"/>
    </g>
    <path id="Path_12403" data-name="Path 12403" d="M169.006,276.507a14.649,14.649,0,0,0-24.359,0Z" transform="translate(-48.649 -240.709)" fill="#fff"/>
  </g>
</svg>
