<svg id="Icon_Contact_info" data-name="Icon_Contact info" xmlns="http://www.w3.org/2000/svg" width="50" height="50" viewBox="0 0 50 50">
  <g id="Group_63238" data-name="Group 63238" transform="translate(-1764 -2753)">
    <circle id="Ellipse_11" data-name="Ellipse 11" cx="25" cy="25" r="25" transform="translate(1764 2753)" fill="#366e56"/>
    <path id="Icon_material-share" data-name="Icon material-share" d="M27,24.12a4.368,4.368,0,0,0-2.94,1.155L13.365,19.05A4.91,4.91,0,0,0,13.5,18a4.91,4.91,0,0,0-.135-1.05L23.94,10.785A4.49,4.49,0,1,0,22.5,7.5a4.91,4.91,0,0,0,.135,1.05L12.06,14.715a4.5,4.5,0,1,0,0,6.57l10.68,6.24a4.232,4.232,0,0,0-.12.975A4.38,4.38,0,1,0,27,24.12Z" transform="translate(1768.8 2759.203)" fill="#fff"/>
  </g>
</svg>
