<svg xmlns="http://www.w3.org/2000/svg" width="55.999" height="49" viewBox="0 0 55.999 49">
  <path id="Icon_awesome-quote-right" data-name="Icon awesome-quote-right" d="M50.75,2.25h-14A5.251,5.251,0,0,0,31.5,7.5v14a5.251,5.251,0,0,0,5.25,5.25H45.5v7a7.006,7.006,0,0,1-7,7h-.875A2.619,2.619,0,0,0,35,43.375v5.25a2.619,2.619,0,0,0,2.625,2.625H38.5A17.5,17.5,0,0,0,56,33.75V7.5A5.251,5.251,0,0,0,50.75,2.25Zm-31.5,0h-14A5.251,5.251,0,0,0,0,7.5v14a5.251,5.251,0,0,0,5.25,5.25H14v7a7.006,7.006,0,0,1-7,7H6.125A2.619,2.619,0,0,0,3.5,43.375v5.25A2.619,2.619,0,0,0,6.125,51.25H7a17.5,17.5,0,0,0,17.5-17.5V7.5A5.251,5.251,0,0,0,19.25,2.25Z" transform="translate(0 -2.25)" fill="#fb9d22"/>
</svg>
