<svg id="Cart_icon_with_number" data-name="Cart icon with number" xmlns="http://www.w3.org/2000/svg" width="30.2" height="33.647" viewBox="0 0 30.2 33.647">
  <g id="Group_65218" data-name="Group 65218" transform="translate(-318.467 -11)">
    <g id="Group_65211" data-name="Group 65211" transform="translate(318.467 17)">
      <g id="Group_65210" data-name="Group 65210" transform="translate(0 0)">
        <path id="Path_12411" data-name="Path 12411" d="M27.939,36.547,24.2,46.268H9.068l-3.23-16.15H0V32.54H3.852l3.23,16.15H25.864L30.2,37.416Z" transform="translate(0 -30.118)" fill="#366e56"/>
      </g>
    </g>
    <g id="Group_65213" data-name="Group 65213" transform="translate(326.138 37.38)">
      <g id="Group_65212" data-name="Group 65212">
        <path id="Path_12412" data-name="Path 12412" d="M133.688,358.674a3.634,3.634,0,1,0,3.634,3.634A3.638,3.638,0,0,0,133.688,358.674Zm0,4.845a1.211,1.211,0,1,1,1.211-1.211A1.213,1.213,0,0,1,133.688,363.519Z" transform="translate(-130.054 -358.674)" fill="#366e56"/>
      </g>
    </g>
    <g id="Group_65215" data-name="Group 65215" transform="translate(336.636 37.38)">
      <g id="Group_65214" data-name="Group 65214">
        <path id="Path_12413" data-name="Path 12413" d="M311.656,358.674a3.634,3.634,0,1,0,3.634,3.634A3.638,3.638,0,0,0,311.656,358.674Zm0,4.845a1.211,1.211,0,1,1,1.211-1.211A1.213,1.213,0,0,1,311.656,363.519Z" transform="translate(-308.022 -358.674)" fill="#366e56"/>
      </g>
    </g>
    <text id="_0" data-name="0" transform="translate(330 29)" fill="#366e56" font-size="18" font-family="Barlow-Bold, Barlow" font-weight="700"><tspan x="0" y="0">0</tspan></text>
  </g>
</svg>
