<svg id="Icons_Join_us" data-name="Icons_Join us" xmlns="http://www.w3.org/2000/svg" width="140.5" height="36.89" viewBox="0 0 140.5 36.89">
  <path id="Path_132" data-name="Path 132" d="M-7022.43,12670.59a18.226,18.226,0,0,0-12.96-5.37,18.181,18.181,0,0,0-12.959,5.37,18.238,18.238,0,0,0-5.37,12.961,18.24,18.24,0,0,0,5.37,12.967,18.222,18.222,0,0,0,12.959,5.37,18.181,18.181,0,0,0,12.96-5.37,18.228,18.228,0,0,0,5.37-12.967A18.314,18.314,0,0,0-7022.43,12670.59Zm-.812,25.152a17.069,17.069,0,0,1-12.156,5.031,17.094,17.094,0,0,1-12.156-5.031,17.041,17.041,0,0,1-5.031-12.156,17.1,17.1,0,0,1,5.031-12.156,17.072,17.072,0,0,1,12.156-5.03,17.085,17.085,0,0,1,12.156,5.03,17.073,17.073,0,0,1,5.031,12.156A17.133,17.133,0,0,1-7023.242,12695.742Z" transform="translate(7105.699 -12664.998)" fill="#fff"/>
  <path id="Path_133" data-name="Path 133" d="M-7021.719,12683.177a.575.575,0,0,0-.037-.686.576.576,0,0,0-.671-.155l-.044.022a4.5,4.5,0,0,0,.332-.768.556.556,0,0,0-.192-.619.58.58,0,0,0-.649-.044,6.48,6.48,0,0,1-1.844.752,4.249,4.249,0,0,0-2.84-1.1,4.222,4.222,0,0,0-4.219,4.212,1.811,1.811,0,0,0,.007.2,9.817,9.817,0,0,1-6.4-3.533.565.565,0,0,0-.487-.207.576.576,0,0,0-.45.28,4.18,4.18,0,0,0-.568,2.117,4.156,4.156,0,0,0,.509,2.006.508.508,0,0,0-.251.081.564.564,0,0,0-.28.494v.044a4.232,4.232,0,0,0,1.475,3.2c-.022.015-.037.037-.059.053a.582.582,0,0,0-.118.553,4.179,4.179,0,0,0,2.456,2.626,6.769,6.769,0,0,1-3.031.708,7.282,7.282,0,0,1-.8-.044.571.571,0,0,0-.6.376.585.585,0,0,0,.229.679,10.91,10.91,0,0,0,5.894,1.726,10.492,10.492,0,0,0,8.128-3.57,11.315,11.315,0,0,0,2.811-7.369v-.191A7.285,7.285,0,0,0-7021.719,12683.177Zm-2.626,1.106a.585.585,0,0,0-.236.494c.007.141.007.287.007.442a10.121,10.121,0,0,1-2.53,6.608,9.372,9.372,0,0,1-7.266,3.187,9.769,9.769,0,0,1-3.29-.567,7.772,7.772,0,0,0,3.445-1.557.58.58,0,0,0,.191-.635.574.574,0,0,0-.531-.391,3.067,3.067,0,0,1-2.471-1.328,4.126,4.126,0,0,0,.856-.14.565.565,0,0,0,.42-.576.575.575,0,0,0-.458-.546,3.083,3.083,0,0,1-2.346-2.169,4.422,4.422,0,0,0,.937.141.58.58,0,0,0,.568-.4.563.563,0,0,0-.229-.648,3.065,3.065,0,0,1-1.365-2.56,2.985,2.985,0,0,1,.1-.768,10.95,10.95,0,0,0,7.3,3.319.551.551,0,0,0,.464-.207.552.552,0,0,0,.118-.494,3.2,3.2,0,0,1-.081-.7,3.076,3.076,0,0,1,3.069-3.069,3.1,3.1,0,0,1,2.242.967.58.58,0,0,0,.524.17q.321-.066.642-.155a4.079,4.079,0,0,1-.339.236.589.589,0,0,0-.25.679.572.572,0,0,0,.612.383c.1-.007.184-.022.28-.036A.9.9,0,0,1-7024.345,12684.283Z" transform="translate(7102.237 -12669.029)" fill="#fff"/>
  <g id="Group_271" data-name="Group 271" transform="translate(103.842 0.147)">
    <path id="Path_134" data-name="Path 134" d="M-6952.121,12670.49a18.221,18.221,0,0,0-12.959-5.37,18.209,18.209,0,0,0-12.96,5.37,18.211,18.211,0,0,0-5.37,12.96,18.242,18.242,0,0,0,5.37,12.968,18.222,18.222,0,0,0,12.96,5.37,18.179,18.179,0,0,0,12.959-5.37,18.231,18.231,0,0,0,5.37-12.968,18.15,18.15,0,0,0-5.37-12.96Zm-.811,25.079a17.068,17.068,0,0,1-12.156,5.03,17.093,17.093,0,0,1-12.156-5.03,17.042,17.042,0,0,1-5.031-12.156,17.1,17.1,0,0,1,5.031-12.156,17.069,17.069,0,0,1,12.156-5.031,17.1,17.1,0,0,1,12.156,5.031,17.073,17.073,0,0,1,5.031,12.156,16.979,16.979,0,0,1-5.031,12.156Z" transform="translate(6983.41 -12665.12)" fill="#fff"/>
  </g>
  <g id="Group_272" data-name="Group 272" transform="translate(112.98 9.279)">
    <path id="Path_135" data-name="Path 135" d="M-6957.012,12677.5h-9.6a4.414,4.414,0,0,0-4.411,4.411v9.6a4.414,4.414,0,0,0,4.411,4.411h9.6a4.413,4.413,0,0,0,4.411-4.411v-9.6A4.428,4.428,0,0,0-6957.012,12677.5Zm3.245,14.015a3.258,3.258,0,0,1-3.253,3.253h-9.6a3.258,3.258,0,0,1-3.253-3.253v-9.6a3.258,3.258,0,0,1,3.253-3.253h9.6a3.258,3.258,0,0,1,3.253,3.253Z" transform="translate(6971.02 -12677.5)" fill="#fff"/>
    <path id="Path_136" data-name="Path 136" d="M-6951.812,12682a.708.708,0,0,0-.708.708.709.709,0,0,0,.708.708.709.709,0,0,0,.708-.708A.744.744,0,0,0-6951.812,12682Z" transform="translate(6966.166 -12678.681)" fill="#fff"/>
    <path id="Path_137" data-name="Path 137" d="M-6960.146,12683.8a4.524,4.524,0,0,0-4.514,4.515,4.524,4.524,0,0,0,4.514,4.515,4.524,4.524,0,0,0,4.514-4.515A4.543,4.543,0,0,0-6960.146,12683.8Zm0,7.893a3.351,3.351,0,0,1-3.349-3.349,3.356,3.356,0,0,1,3.349-3.349,3.351,3.351,0,0,1,3.349,3.349A3.327,3.327,0,0,1-6960.146,12691.692Z" transform="translate(6969.351 -12679.153)" fill="#fff"/>
  </g>
  <path id="Path_138" data-name="Path 138" d="M-7103.39,12695.872h3.688a.576.576,0,0,0,.575-.575v-8.3h1.918a.568.568,0,0,0,.567-.516l.325-3.136a.566.566,0,0,0-.148-.441.591.591,0,0,0-.428-.192h-2.242v-1.269c0-.266.081-.28.206-.28h1.984a.576.576,0,0,0,.575-.575v-3.046a.581.581,0,0,0-.567-.576l-2.737-.007a4.033,4.033,0,0,0-3.459,1.549,4.689,4.689,0,0,0-.834,2.743v1.453h-1.18a.576.576,0,0,0-.575.576v3.135a.576.576,0,0,0,.575.575h1.18v8.3A.556.556,0,0,0-7103.39,12695.872Zm-1.18-10.031v-1.991h1.18a.576.576,0,0,0,.575-.576v-2.028a3.635,3.635,0,0,1,.612-2.065,2.957,2.957,0,0,1,2.53-1.084l2.161.008v1.9h-1.409a1.322,1.322,0,0,0-1.356,1.432v1.844a.576.576,0,0,0,.575.576h2.176l-.206,1.991h-1.97a.576.576,0,0,0-.575.576v8.3h-2.545v-8.3a.576.576,0,0,0-.575-.576h-1.173Z" transform="translate(7119.344 -12668.078)" fill="#fff"/>
  <path id="Path_139" data-name="Path 139" d="M-7092.9,12670.29a18.222,18.222,0,0,0-12.96-5.37,18.209,18.209,0,0,0-12.959,5.37,18.224,18.224,0,0,0-5.37,12.96,18.244,18.244,0,0,0,5.37,12.968,18.226,18.226,0,0,0,12.959,5.37,18.181,18.181,0,0,0,12.96-5.37,18.231,18.231,0,0,0,5.37-12.968A18.312,18.312,0,0,0-7092.9,12670.29Zm-.812,25.152a17.068,17.068,0,0,1-12.156,5.03,17.068,17.068,0,0,1-12.156-5.03,17.073,17.073,0,0,1-5.031-12.156,17.066,17.066,0,0,1,5.031-12.148,17.076,17.076,0,0,1,12.156-5.038,17.069,17.069,0,0,1,12.156,5.031,17.071,17.071,0,0,1,5.031,12.156A17.134,17.134,0,0,1-7093.712,12695.442Z" transform="translate(7124.189 -12664.92)" fill="#fff"/>
</svg>
