<svg xmlns="http://www.w3.org/2000/svg" width="59" height="59" viewBox="0 0 59 59">
  <g id="Tour_Duration" transform="translate(-9003 2382)">
    <g id="Ellipse_12" data-name="Ellipse 12" transform="translate(9003 -2382)" fill="none" stroke="#366e56" stroke-width="2">
      <circle cx="29.5" cy="29.5" r="29.5" stroke="none"/>
      <circle cx="29.5" cy="29.5" r="28.5" fill="none"/>
    </g>
    <path id="clock" d="M27.25,8A19.25,19.25,0,1,0,46.5,27.25,19.247,19.247,0,0,0,27.25,8Zm0,35.874c-8.577,0-16.624-8.047-16.624-16.624S18.673,10.626,27.25,10.626,43.874,18.673,43.874,27.25,35.827,43.874,27.25,43.874Zm4.8-9.2-6.59-4.789a.938.938,0,0,1-.38-.753V16.383a.934.934,0,0,1,.931-.931h1.144a.934.934,0,0,1,.931.931V28.25L33.351,32c.419.3,1.118.831.816,1.25l-.816,1.219a.938.938,0,0,1-1.3.2Z" transform="translate(9005 -2380)" fill="#366e56"/>
  </g>
</svg>
