<svg id="Icon_skiing_white" xmlns="http://www.w3.org/2000/svg" width="36.005" height="36" viewBox="0 0 36.005 36">
  <path id="Icon_awesome-skiing" data-name="Icon awesome-skiing" d="M30.381,6.751a3.376,3.376,0,1,0-3.376-3.376A3.377,3.377,0,0,0,30.381,6.751Zm5.134,25.043a1.681,1.681,0,0,0-2.384,0,2.861,2.861,0,0,1-3.172.612l-9.55-4.937,3.46-5.19a3.376,3.376,0,0,0-.422-4.262l-2.841-2.848-7.525-3.734a4.487,4.487,0,0,0,1.245,3.826l5.282,5.289-3.228,4.838L2.461,18.193a1.686,1.686,0,0,0-1.547,3L28.475,35.43a6.193,6.193,0,0,0,2.609.57,6.261,6.261,0,0,0,4.431-1.828,1.685,1.685,0,0,0,0-2.377ZM8.439,6.442,7.63,8.024a2.754,2.754,0,0,0,3.01-.338L13.96,9.332c-.007.007-.007.014-.014.021L22,13.348l2.279-.914.45,1.343a3.348,3.348,0,0,0,1.688,1.948L30.5,17.764a2.249,2.249,0,1,0,2.011-4.023l-3.664-1.836-1.2-3.6A4.519,4.519,0,0,0,21.7,5.549l-5.71,2.286-4.4-2.18a2.726,2.726,0,0,0-1.47-2.5L9.346,4.677H9.332L6.913,4.184a.359.359,0,0,0-.352.12.368.368,0,0,0,.035.52L8.439,6.442Z" transform="translate(0)" fill="#fff"/>
</svg>
