<svg id="Icon_skiing_Green" xmlns="http://www.w3.org/2000/svg" width="45" height="45" viewBox="0 0 45 45">
  <path id="Icon_awesome-skiing" data-name="Icon awesome-skiing" d="M37.971,8.439a4.22,4.22,0,1,0-4.219-4.22A4.22,4.22,0,0,0,37.971,8.439Zm6.416,31.3a2.1,2.1,0,0,0-2.98,0,3.575,3.575,0,0,1-3.964.765L25.507,34.337l4.324-6.488a4.22,4.22,0,0,0-.527-5.327l-3.551-3.56-9.4-4.668A5.609,5.609,0,0,0,17.9,19.076l6.6,6.611-4.034,6.048L3.076,22.742a2.107,2.107,0,0,0-1.934,3.745l34.446,17.8A7.74,7.74,0,0,0,38.85,45a7.824,7.824,0,0,0,5.537-2.286A2.107,2.107,0,0,0,44.387,39.743ZM10.547,8.052,9.537,10.03A3.441,3.441,0,0,0,13.3,9.608l4.149,2.057c-.009.009-.009.018-.018.026l10.064,4.993,2.848-1.143.563,1.679a4.184,4.184,0,0,0,2.109,2.435l5.107,2.549a2.811,2.811,0,0,0,2.514-5.028l-4.579-2.294-1.5-4.5a5.647,5.647,0,0,0-7.427-3.446L19.987,9.793,14.494,7.068a3.408,3.408,0,0,0-1.837-3.13l-.976,1.908h-.018L8.64,5.231A.449.449,0,0,0,8.2,5.38a.46.46,0,0,0,.044.651l2.3,2.022Z" transform="translate(0)" fill="#366e56"/>
</svg>
