<svg id="Icon_hiking_green" xmlns="http://www.w3.org/2000/svg" width="33.749" height="45" viewBox="0 0 33.749 45">
  <path id="Icon_awesome-hiking" data-name="Icon awesome-hiking" d="M7.115,41.5a2.813,2.813,0,0,0,5.458,1.365l2.218-8.874-4.639-4.639L7.115,41.5ZM8.423,24.267l3.618-13.984a1.379,1.379,0,0,0-1.048-1.675,7.224,7.224,0,0,0-8.729,5.025L.043,22.257a1.379,1.379,0,0,0,1.048,1.675l5.586,1.34a1.445,1.445,0,0,0,1.746-1.005Zm23.92-10.2H30.937a1.406,1.406,0,0,0-1.406,1.406v1.406H26.477l-4.111-4.111a5.166,5.166,0,0,0-8.665,2.4L11.334,24.63a2.813,2.813,0,0,0,.74,2.671l7.613,7.613v7.273a2.812,2.812,0,1,0,5.625,0V34.914a5.588,5.588,0,0,0-1.648-3.977l-4.115-4.115c.013-.044.043-.078.054-.124L21.352,19.7l1.971,1.971a2.813,2.813,0,0,0,1.988.824H29.53V43.594A1.406,1.406,0,0,0,30.936,45h1.406a1.406,1.406,0,0,0,1.406-1.406V15.468A1.4,1.4,0,0,0,32.343,14.062ZM21.093,8.437a4.219,4.219,0,1,0-4.219-4.219A4.219,4.219,0,0,0,21.093,8.437Z" transform="translate(0)" fill="#366e56"/>
</svg>
