<svg xmlns="http://www.w3.org/2000/svg" width="59" height="59" viewBox="0 0 59 59">
  <g id="Tour_Group_Size" data-name="Tour_Group Size" transform="translate(-8563 2277)">
    <g id="Ellipse_12" data-name="Ellipse 12" transform="translate(8563 -2277)" fill="none" stroke="#366e56" stroke-width="2">
      <circle cx="29.5" cy="29.5" r="29.5" stroke="none"/>
      <circle cx="29.5" cy="29.5" r="28.5" fill="none"/>
    </g>
    <path id="group2" d="M68.567,77.07a4.785,4.785,0,1,0-4.785-4.785A4.792,4.792,0,0,0,68.567,77.07ZM66.1,72.285a2.459,2.459,0,1,1,2.459,2.459A2.46,2.46,0,0,1,66.1,72.285ZM76.368,83.6V94.42H73.953v11.473H71.638v-15h2.315V92.1h.1V83.6a3.676,3.676,0,0,0-3.672-3.672H66.764A3.676,3.676,0,0,0,63.092,83.6v8.5h.1V90.892h2.326v15H63.181V94.42H60.766V83.6a6,6,0,0,1,5.987-5.987h3.628A6,6,0,0,1,76.368,83.6Zm-8.969,9.7h2.326v12.586H67.4ZM83.2,81.9a4.184,4.184,0,1,0-4.184-4.184A4.187,4.187,0,0,0,83.2,81.9Zm-1.858-4.184A1.858,1.858,0,1,1,83.2,79.574,1.862,1.862,0,0,1,81.342,77.716Zm8.458,9.5v9.615H87.385v9.058H85.059V93.307h2.326V94.52h.1V87.231a2.46,2.46,0,0,0-2.459-2.459H79.039V82.445h5.987A4.787,4.787,0,0,1,89.8,87.219ZM78.872,93.307h2.315v12.586H78.872V96.834H76.457V94.52h2.415ZM53.4,81.9a4.184,4.184,0,1,0-4.184-4.184A4.187,4.187,0,0,0,53.4,81.9Zm-1.858-4.184A1.858,1.858,0,1,1,53.4,79.574,1.862,1.862,0,0,1,51.541,77.716Zm-2.415,9.515V94.52h.1V93.307h2.326v12.586H49.215V96.834H46.8V87.219a4.8,4.8,0,0,1,4.785-4.785h5.987V84.76H51.585A2.47,2.47,0,0,0,49.126,87.231Zm8.446,7.289h2.415v2.315H57.572v9.058H55.246V93.307h2.326Z" transform="translate(8524.2 -2336.393)" fill="#366e56"/>
  </g>
</svg>
