<svg xmlns="http://www.w3.org/2000/svg" width="59" height="59" viewBox="0 0 59 59">
  <g id="Tour_Availability" transform="translate(-8563 2382)">
    <g id="Ellipse_12" data-name="Ellipse 12" transform="translate(8563 -2382)" fill="none" stroke="#366e56" stroke-width="2">
      <circle cx="29.5" cy="29.5" r="29.5" stroke="none"/>
      <circle cx="29.5" cy="29.5" r="28.5" fill="none"/>
    </g>
    <path id="calendar-check" d="M27.344,4.375H24.063V.82a.82.82,0,0,0-.82-.82H20.508a.82.82,0,0,0-.82.82V4.375h-8.75V.82a.82.82,0,0,0-.82-.82H7.383a.82.82,0,0,0-.82.82V4.375H3.281A3.281,3.281,0,0,0,0,7.656V31.719A3.281,3.281,0,0,0,3.281,35H27.344a3.281,3.281,0,0,0,3.281-3.281V7.656A3.281,3.281,0,0,0,27.344,4.375ZM2.281,32.309V8.937H28.344V32.309C28.344,32.535,2.281,32.535,2.281,32.309ZM23.321,17l-9.728,9.65a.82.82,0,0,1-1.16,0L7.3,21.473a.82.82,0,0,1,0-1.16l1.553-1.541a.82.82,0,0,1,1.16,0l3.015,3.039,7.593-7.532a.82.82,0,0,1,1.16,0l1.541,1.553a.82.82,0,0,1,0,1.16Z" transform="translate(8577 -2370)" fill="#366e56"/>
  </g>
</svg>
