<svg xmlns="http://www.w3.org/2000/svg" width="59" height="59" viewBox="0 0 59 59">
  <g id="Trip_Trip" transform="translate(-9003 2277)">
    <g id="Ellipse_12" data-name="Ellipse 12" transform="translate(9003 -2277)" fill="none" stroke="#366e56" stroke-width="2">
      <circle cx="29.5" cy="29.5" r="29.5" stroke="none"/>
      <circle cx="29.5" cy="29.5" r="28.5" fill="none"/>
    </g>
    <g id="Group_63310" data-name="Group 63310" transform="translate(9013.361 -2262)">
      <g id="Group_65604" data-name="Group 65604" transform="translate(0.639 0)">
        <path id="Path_848" data-name="Path 848" d="M36.7,147.484l-10.9-15.96a8.647,8.647,0,1,0-17.088-1.877,8.654,8.654,0,0,0,4.729,7.711l-2.81,4.215L8.5,138.726a1.081,1.081,0,0,0-.864-.432h0a1.081,1.081,0,0,0-.864.431L.217,147.443a1.081,1.081,0,0,0,.864,1.73H35.812a1.081,1.081,0,0,0,.893-1.69ZM10.88,129.647a6.485,6.485,0,0,1,12.871-1.134l-.089-.13a1.081,1.081,0,0,0-.893-.471h-.006a1.081,1.081,0,0,0-.893.481l-4.364,6.546-.321-.485a1.081,1.081,0,0,0-.9-.484h0a1.081,1.081,0,0,0-.9.481l-.728,1.091A6.459,6.459,0,0,1,10.88,129.647ZM3.246,147.012l4.391-5.838,2.188,2.918a1.081,1.081,0,0,0,1.764-.049L16.282,137l6.636,10.009Zm22.266,0L18.8,136.892l3.978-5.968,10.985,16.087Z" transform="translate(0 -121)" fill="#366e56"/>
      </g>
    </g>
  </g>
</svg>
