<svg xmlns="http://www.w3.org/2000/svg" width="108" height="78.283" viewBox="0 0 108 78.283">
  <g id="honesty" transform="translate(0 -70.297)">
    <path id="Path_887" data-name="Path 887" d="M87.6,197.22l-8.671,8.671c-.113-.137-.233-.271-.362-.4l-11.2-11.2a1.585,1.585,0,0,0-2.242,2.242l11.2,11.2a2.469,2.469,0,1,1-3.492,3.492L66.615,205a1.585,1.585,0,1,0-2.242,2.242l6.223,6.223h0a2.469,2.469,0,0,1-3.492,3.491l-6.223-6.223a1.585,1.585,0,0,0-2.242,2.242l6.223,6.223a2.469,2.469,0,1,1-3.492,3.492l-6.223-6.223a1.585,1.585,0,0,0-2.242,2.242l6.223,6.223a2.469,2.469,0,1,1-3.491,3.492l-4.031-4.031a5.581,5.581,0,0,0-.837-6.807l-.1-.1a5.563,5.563,0,0,0-4.5-1.6,5.564,5.564,0,0,0-4.221-5.026,5.576,5.576,0,0,0-7.61-7.032,5.568,5.568,0,0,0-9.3-2.421l-.654.654-.477-.477a4.031,4.031,0,0,1-1.189-2.87v-4.134a1.585,1.585,0,0,0-.464-1.121L15.5,186.7l1.9-1.9a1.585,1.585,0,0,0-2.242-2.242L12.608,185.1a1.234,1.234,0,0,1-1.744,0l-8.158-8.158a1.585,1.585,0,1,0-2.242,2.242l8.158,8.158a4.376,4.376,0,0,0,4.186,1.15l6.748,6.748v3.478a7.182,7.182,0,0,0,2.117,5.111l.477.477-.531.531a5.569,5.569,0,0,0,3.94,9.509l.068,0c0,.023,0,.047,0,.07a5.572,5.572,0,0,0,5.572,5.572l.07,0a5.561,5.561,0,0,0,5.568,5.637l.07,0a5.555,5.555,0,0,0,1.628,4.01l.1.1a5.572,5.572,0,0,0,7.88,0l2.973-2.973,3.914,3.914a5.635,5.635,0,0,0,9.622-4.084l.1,0a5.633,5.633,0,0,0,5.635-5.738l.1,0a5.635,5.635,0,0,0,5.639-5.637c0-.033,0-.066,0-.1l.1,0a5.629,5.629,0,0,0,5.623-6.015l9.64-9.64A1.586,1.586,0,0,0,87.6,197.22ZM23.862,210.475a2.4,2.4,0,0,1,0-3.4l3.426-3.426a2.4,2.4,0,1,1,3.4,3.4l-3.426,3.426a2.4,2.4,0,0,1-3.4,0Zm7.336,6.342a2.4,2.4,0,0,1-1.7-4.1l3.426-3.426,2.13-2.13a2.4,2.4,0,0,1,3.4,3.4L32.9,216.113a2.386,2.386,0,0,1-1.7.7Zm3.94,4.934a2.4,2.4,0,0,1,0-3.4l3.782-3.782a2.4,2.4,0,0,1,3.4,3.4l-3.782,3.782A2.4,2.4,0,0,1,35.138,221.751Zm9.129,5.733a2.4,2.4,0,0,1-3.4,0l-.1-.1a2.4,2.4,0,0,1,0-3.4l3.781-3.781,0,0,.475-.475a2.4,2.4,0,0,1,3.4,0l.1.1a2.4,2.4,0,0,1,0,3.4Z" transform="translate(0 -83.738)" fill="#366e56"/>
    <path id="Path_888" data-name="Path 888" d="M180.18,99.884a1.585,1.585,0,0,0-2.242,0L172,105.824a.216.216,0,0,1-.3,0l-21-20.061a.215.215,0,0,1,0-.307L163.149,73a1.585,1.585,0,1,0-2.242-2.242L148.451,83.218a3.378,3.378,0,0,0-.294,4.446l-5.7,5.59-5.371-3a4.734,4.734,0,0,0-2.3-.6h-15.26L118.363,88.5a10.687,10.687,0,0,0-3.776-2.445l-4.225-1.61-1.952-1.952a4.407,4.407,0,0,0-.662-5.37l-6.361-6.361A1.585,1.585,0,0,0,99.145,73l6.361,6.361a1.235,1.235,0,0,1,0,1.744L92.579,94.036a1.585,1.585,0,0,0,2.242,2.242l11.446-11.446,2.094,2.094a1.588,1.588,0,0,0,.557.361l4.541,1.73a7.534,7.534,0,0,1,2.6,1.668c-.1.081-.191.165-.281.255l-6.029,6.029a6.334,6.334,0,0,0,8.5,9.372l4.563-3.751h4.752l5.43,5.43a1.585,1.585,0,0,0,2.242-2.242l-3.923-3.923a1.583,1.583,0,0,0-1.336-2.436h-7.734a1.585,1.585,0,0,0-1.007.361l-5,4.111a3.164,3.164,0,0,1-4.247-4.681l6.029-6.029a1.186,1.186,0,0,1,.845-.35h15.917a1.557,1.557,0,0,1,.757.2l5.94,3.313a2.312,2.312,0,0,0,2.728-.365l6.209-6.09,17.1,16.33-2.489,2.489a1.585,1.585,0,0,0,2.242,2.242l2.56-2.56a3.4,3.4,0,0,0,4.412-.32l5.941-5.94a1.586,1.586,0,0,0,0-2.242Z" transform="translate(-72.644)" fill="#366e56"/>
  </g>
</svg>
