<svg id="Icon_europe" xmlns="http://www.w3.org/2000/svg" width="78" height="78" viewBox="0 0 78 78">
  <g id="Group_63412" data-name="Group 63412">
    <path id="Path_873" data-name="Path 873" d="M68.958,29.5,77.907,5.045a1.523,1.523,0,0,0-1.041-2C64.575-.2,52.977,1.454,41.76,3.057c-10.569,1.51-21.489,3.069-32.8.281A4.562,4.562,0,0,0,0,4.564V73.438a4.562,4.562,0,0,0,9.125,0V56.468a59.3,59.3,0,0,0,13.3,1.422,139.124,139.124,0,0,0,19.767-1.859c11.418-1.631,22.2-3.172,33.895-.079a1.523,1.523,0,0,0,1.82-2ZM41.76,53.015c-10.517,1.5-21.38,3.054-32.635.323V36.387a1.523,1.523,0,1,0-3.047,0V73.438a1.516,1.516,0,0,1-3.031,0V4.564a1.516,1.516,0,1,1,3.031,0V22.676a1.523,1.523,0,1,0,3.047,0V6.508C20.674,9.145,31.6,7.586,42.192,6.073c10.888-1.556,21.2-3.029,32.27-.481L65.905,28.976a1.522,1.522,0,0,0,0,1.047l8.169,22.324c-11.26-2.341-21.95-.814-32.315.667Z" transform="translate(0 -0.001)" fill="#366e56"/>
    <path id="Path_874" data-name="Path 874" d="M244.473,83.848h0A1.523,1.523,0,1,0,246,85.371,1.523,1.523,0,0,0,244.472,83.848Z" transform="translate(-205.937 -71.074)" fill="#366e56"/>
    <path id="Path_875" data-name="Path 875" d="M193.871,97.364h0a1.523,1.523,0,1,0,2,.8,1.523,1.523,0,0,0-2-.8Z" transform="translate(-163.552 -82.426)" fill="#366e56"/>
    <path id="Path_876" data-name="Path 876" d="M158.467,133.965a1.523,1.523,0,0,0-2,.8h0a1.523,1.523,0,1,0,2-.8Z" transform="translate(-132.525 -113.452)" fill="#366e56"/>
    <path id="Path_877" data-name="Path 877" d="M146,185.366a1.523,1.523,0,0,0-3.047,0h0a1.523,1.523,0,0,0,3.047,0Z" transform="translate(-121.172 -155.836)" fill="#366e56"/>
    <path id="Path_878" data-name="Path 878" d="M157.266,233.963a1.523,1.523,0,0,0-.8,2h0a1.523,1.523,0,1,0,.8-2Z" transform="translate(-132.525 -198.215)" fill="#366e56"/>
    <path id="Path_879" data-name="Path 879" d="M195.223,270.646a1.524,1.524,0,0,0-1.512,2.646h0a1.524,1.524,0,0,0,1.511-2.646Z" transform="translate(-163.55 -229.244)" fill="#366e56"/>
    <path id="Path_880" data-name="Path 880" d="M244.468,283.846a1.523,1.523,0,1,0,0,3.047h0a1.523,1.523,0,0,0,0-3.047Z" transform="translate(-205.934 -240.604)" fill="#366e56"/>
    <path id="Path_881" data-name="Path 881" d="M293.711,270.649a1.523,1.523,0,1,0,1.512,2.646h0a1.523,1.523,0,0,0-1.513-2.645Z" transform="translate(-248.315 -229.247)" fill="#366e56"/>
    <path id="Path_882" data-name="Path 882" d="M331.827,234.046a1.524,1.524,0,1,0,.567,2.079h0A1.523,1.523,0,0,0,331.827,234.046Z" transform="translate(-279.342 -198.221)" fill="#366e56"/>
    <path id="Path_883" data-name="Path 883" d="M344.471,183.847a1.524,1.524,0,1,0,1.523,1.524h0A1.523,1.523,0,0,0,344.471,183.847Z" transform="translate(-290.702 -155.839)" fill="#366e56"/>
    <path id="Path_884" data-name="Path 884" d="M331.076,136.892a1.524,1.524,0,0,0,1.321-2.28h0a1.523,1.523,0,1,0-1.321,2.281Z" transform="translate(-279.346 -113.454)" fill="#366e56"/>
    <path id="Path_885" data-name="Path 885" d="M295.071,97.364h0a1.524,1.524,0,1,0,.8,2,1.523,1.523,0,0,0-.8-2Z" transform="translate(-248.318 -82.426)" fill="#366e56"/>
    <path id="Path_886" data-name="Path 886" d="M41.42,183.84a1.524,1.524,0,1,0,1.523,1.524h0A1.523,1.523,0,0,0,41.42,183.84Z" transform="translate(-33.819 -155.833)" fill="#366e56"/>
  </g>
</svg>
