<svg id="Icon_Guide" xmlns="http://www.w3.org/2000/svg" width="78" height="78" viewBox="0 0 78 78">
  <path id="Path_867" data-name="Path 867" d="M175.168,48.308l-10.441-1.789V43.824a15.334,15.334,0,0,0,8.537-13.965V23.613h7.114A1.476,1.476,0,0,0,181.8,22.09V20.344a6.433,6.433,0,0,0-6.2-6.633h-2.413C172.477,6.023,166.4,0,159.035,0s-13.442,6.023-14.158,13.711h-2.413a6.433,6.433,0,0,0-6.2,6.633V22.09a1.476,1.476,0,0,0,1.423,1.523h7.114v6.246a15.335,15.335,0,0,0,8.537,13.965v2.694L142.9,48.308C136.631,49.383,132,55.181,132,62v14.48A1.476,1.476,0,0,0,133.423,78h51.224a1.476,1.476,0,0,0,1.423-1.523V62c0-6.8-4.616-12.611-10.9-13.689ZM159.035,3.047c5.795,0,10.588,4.661,11.291,10.664H147.744C148.447,7.708,153.24,3.047,159.035,3.047ZM147.652,29.859V23.613h5.123a1.527,1.527,0,0,0,0-3.047h-13.66v-.222a3.478,3.478,0,0,1,3.349-3.586h33.142a3.478,3.478,0,0,1,3.349,3.586v.222H165.58a1.527,1.527,0,0,0,0,3.047h4.838v6.246c0,6.66-5.035,12.187-11.383,12.187S147.652,36.52,147.652,29.859Zm7.339,19.463a1.5,1.5,0,0,0,1.2-1.5V44.787a13.338,13.338,0,0,0,5.692,0v3.031a1.5,1.5,0,0,0,1.2,1.5l4.722.809-8.766,12.515-8.766-12.515Zm7.032,25.631h-5.834V67.945h5.834ZM134.846,62a10.577,10.577,0,0,1,8.506-10.68l3.741-.641L157.056,64.9h-2.289a1.476,1.476,0,0,0-1.423,1.523v8.531h-9.96V66.422a1.426,1.426,0,1,0-2.846,0v8.531h-5.692Zm48.378,12.957h-5.692V66.422a1.426,1.426,0,1,0-2.846,0v8.531h-9.818V66.422a1.476,1.476,0,0,0-1.423-1.523h-2.432l9.963-14.223,3.741.641A10.577,10.577,0,0,1,183.224,62Z" transform="translate(-108.07)" fill="#366e56"/>
  <path id="Path_869" data-name="Path 869" d="M1.813,197.264a1.813,1.813,0,1,0,0,3.626H12.69a1.813,1.813,0,1,0,0-3.626H9.064V167.672l26.054-10.422a1.813,1.813,0,0,0,0-3.367L9.064,143.463v-9.65a1.813,1.813,0,1,0-3.626,0v63.451Zm27.751-41.7-20.5,8.2v-16.4Z" transform="translate(0 -122.89)" fill="#366e56"/>
  <ellipse id="Ellipse_22" data-name="Ellipse 22" cx="1.56" cy="1.95" rx="1.56" ry="1.95" transform="translate(47.532 20.15)" fill="#366e56"/>
</svg>
