<svg id="Icon_Safe_money" data-name="Icon_Safe money" xmlns="http://www.w3.org/2000/svg" width="95.506" height="78.507" viewBox="0 0 95.506 78.507">
  <path id="Path_12389" data-name="Path 12389" d="M57,17.5a9,9,0,1,1-9,9A8.963,8.963,0,0,1,57,17.5Z" transform="translate(0 0.007)" fill="none"/>
  <g id="Group_65132" data-name="Group 65132" transform="translate(0 0.007)">
    <path id="Path_12390" data-name="Path 12390" d="M66,26.5a9,9,0,1,0-9,9A8.963,8.963,0,0,0,66,26.5Zm-15,0a6,6,0,1,1,6,6A6.018,6.018,0,0,1,51,26.5Z" fill="#366e56"/>
    <path id="Path_12391" data-name="Path 12391" d="M70.8,11.5c8.6-.8,12.5.1,13.9.6V37.8a41.349,41.349,0,0,0-14.2-.5c-9.2,1.1-23,4.6-26.1,5.4v3.1h.2c.2,0,16.3-4.3,26.3-5.5,9.6-1.1,14.7.9,14.8.9l2.1.8V10.4l-.7-.4c-.4-.3-4-2.6-16.5-1.5A93.546,93.546,0,0,0,53.5,12a67.362,67.362,0,0,1-13.2,2.7c-8.5.5-12.5-1-12.5-1.1l-2.1-.8v8.7h3V17a43.914,43.914,0,0,0,11.8.7,71.934,71.934,0,0,0,13.8-2.8A92.236,92.236,0,0,1,70.8,11.5Z" fill="#366e56"/>
    <path id="Path_12392" data-name="Path 12392" d="M92.5,2.8h0A35.269,35.269,0,0,0,78.3,0C70.9,0,63.5,1.9,56.4,3.7c-7,1.8-14.2,3.6-21.2,3.6A35.652,35.652,0,0,1,24.9,5.8a4.529,4.529,0,0,0-1.6-.3A5.135,5.135,0,0,0,19.6,7,5.233,5.233,0,0,0,18,10.7V21.5h3V10.7a2.13,2.13,0,0,1,.7-1.6,2.271,2.271,0,0,1,1.6-.6,2.2,2.2,0,0,1,.8.1,37.159,37.159,0,0,0,11,1.7c7.5,0,15-1.8,22.2-3.7,6.8-1.8,14-3.6,21-3.6a32.364,32.364,0,0,1,13,2.5,2.332,2.332,0,0,1,1.3,2.1v37a2.32,2.32,0,0,1-3,2.1A39.159,39.159,0,0,0,78.3,45c-7.4,0-14.8,1.9-21.9,3.7-3.9,1-8,2-12,2.7v3c4.3-.7,8.5-1.8,12.7-2.8,7-1.8,14.2-3.6,21.2-3.6a32.53,32.53,0,0,1,10.3,1.5,4.529,4.529,0,0,0,1.6.3,5.315,5.315,0,0,0,5.3-5.2V7.6A4.925,4.925,0,0,0,92.5,2.8Z" fill="#366e56"/>
    <path id="Path_12393" data-name="Path 12393" d="M37.9,28.5a1.268,1.268,0,0,0-.6.1,1.568,1.568,0,0,0-.9,1.4h0a4.481,4.481,0,0,1-4.5,4.5h-3A7.642,7.642,0,0,1,21.3,27h0a1.568,1.568,0,0,0-.9-1.4,1.268,1.268,0,0,0-.6-.1A1.538,1.538,0,0,0,18.3,27h0a7.512,7.512,0,0,1-7.6,7.5h-3A4.481,4.481,0,0,1,3.2,30h0a2.1,2.1,0,0,0-.4-1.1,1.5,1.5,0,0,0-1.1-.4A1.59,1.59,0,0,0,0,30H0V58.8H0v.1A18.16,18.16,0,0,0,18.1,77h.1a1.538,1.538,0,0,0,1.5,1.5h0A1.538,1.538,0,0,0,21.2,77h0A18.246,18.246,0,0,0,39.4,58.9V30.1h0A1.561,1.561,0,0,0,37.9,28.5ZM36.3,58.8h0A15.172,15.172,0,0,1,21.2,74h-.3a2.843,2.843,0,0,0-1.2.4,5.638,5.638,0,0,0-1.2-.4h-.3A15.258,15.258,0,0,1,3,58.8H3V36.1a7.177,7.177,0,0,0,4.5,1.5h3a10.629,10.629,0,0,0,9.1-5.2,10.629,10.629,0,0,0,9.1,5.2h3a7.6,7.6,0,0,0,4.5-1.5V58.8Z" fill="#366e56"/>
    <path id="Path_12394" data-name="Path 12394" d="M30.1,44.6a1.461,1.461,0,0,0-2.1.3L16.1,60.1l-4.2-4.2A1.485,1.485,0,0,0,9.8,58l5.4,5.4h0l.1.1a.31.31,0,0,0,.2.1c.1,0,.1.1.2.1a.9.9,0,0,0,.5.1h0a.9.9,0,0,0,.5-.1h.1a1.38,1.38,0,0,0,.4-.3h0l.1-.1L30.2,46.8A1.485,1.485,0,0,0,30.1,44.6Z" fill="#366e56"/>
  </g>
</svg>
